<svg version="1.1" id="Layer_1" xmlns="http://www.w3.org/2000/svg" xmlns:xlink="http://www.w3.org/1999/xlink" x="0" y="0" viewBox="0 0 361.5 127.2" xml:space="preserve"><style>.st6{fill:#fff}</style><ellipse cx="168.5" cy="73.1" rx="130.1" ry="54.1" fill="#00b3ff"/><ellipse cx="168.5" cy="73.1" rx="121.6" ry="50.6" opacity=".4" fill="#00b3ff" stroke="#fff" stroke-width="2" stroke-miterlimit="10"/><defs><ellipse id="SVGID_1_" cx="168.5" cy="73.1" rx="130.1" ry="54.1"/></defs><clipPath id="SVGID_2_"><use xlink:href="#SVGID_1_" overflow="visible"/></clipPath><g clip-path="url(#SVGID_2_)"><defs><ellipse id="SVGID_3_" cx="168.5" cy="147.7" rx="187.8" ry="54.1"/></defs><clipPath id="SVGID_4_"><use xlink:href="#SVGID_3_" overflow="visible" opacity=".6"/></clipPath><path clip-path="url(#SVGID_4_)" fill="#0071a1" d="M21.7 60.4h293.1v90H21.7z"/><ellipse cx="168.5" cy="142.3" rx="187.8" ry="54.1" clip-path="url(#SVGID_4_)" fill="none"/></g><path d="M32.1 110.9c-4.5 1.7-8.9 2.3-13.1 1.8-4.2-.6-7.8-2-10.8-4.4-3-2.4-5.3-5.4-6.7-9.1C.2 95.9-.3 92.4 0 88.7c.2-3.7 1.1-7.3 2.7-11 1.6-3.6 3.7-6.9 6.5-10s6-5.6 9.9-7.6c-3.6-1.3-6.6-3.2-9.1-5.6-2.5-2.4-4.3-5.2-5.5-8.2-1.5-3.9-1.9-8-1.2-12.2.7-4.2 2.3-8.1 5.1-11.7 2.7-3.5 6.4-6.2 11-8 4.3-1.6 8.1-1.8 11.2-.6 3.1 1.2 5.4 3.9 7 7.9 1.1 2.8 1.6 5.7 1.6 8.6 0 3-.4 5.5-1.2 7.7-.8 2.1-1.9 3.5-3.3 4-1 .4-2 .3-3.2-.2-1.2-.5-2.2-1.2-3.3-2.1 1.8-3.3 3.1-6.5 4.1-9.7.9-3.2.9-6.2-.2-8.9-.8-2.2-2.2-3.6-4.1-4.2-1.9-.6-4-.5-6.4.4-3.3 1.3-5.7 3.3-7.2 6.2-1.5 2.9-2.2 6.1-2.2 9.8 0 3.6.7 7.2 2.1 10.7 1.1 3 2.8 5.9 5.1 8.6 2.3 2.7 5.3 4.7 9.1 5.8-4.9 2.8-8.7 6.3-11.4 10.6-2.7 4.3-4.4 8.7-5 13.3-.6 4.6-.3 8.8 1.2 12.5.9 2.3 2.2 4.5 4.1 6.6 1.8 2.1 4.1 3.6 6.8 4.5 2.7.9 5.8.6 9.3-.7 4-1.5 7.5-4.1 10.5-7.8s5.5-8 7.4-12.9c1.9-4.9 3-9.7 3.3-14.6l3.2.7c-.7 6.1-2.1 11.8-4.2 17.2-2.1 5.4-4.9 10.1-8.4 14.1-3.6 4.1-8 7-13.2 9z"/><path d="M67.9 92.2c-3.5.9-6.3.3-8.2-1.7-2-2-3.4-4.6-4.2-7.9-.9-3.7-1.3-8.3-1.2-13.6.1-5.4.6-11.1 1.5-17.1.9-6.1 2-12.1 3.4-18 1.4-6 2.9-11.4 4.5-16.4 1.6-5 3.3-9 5-12.1C70.4 2.3 71.9.5 73.3.2c.9-.4 1.8-.1 2.7.8.9.8 1.7 1.9 2.4 3.2.7 1.3 1.2 2.5 1.5 3.7.5 2.1.7 4.9.5 8.4s-.7 7.6-1.6 12c-.9 4.5-2.1 9.1-3.6 13.8-1.5 4.8-3.3 9.4-5.5 13.9-2.1 4.5-4.6 8.6-7.4 12.2.2 2 .4 3.9.6 5.9.2 2 .5 3.7.9 5.3.7 2.8 1.6 4.8 2.9 5.9 1.2 1.1 2.6 1.5 4.1 1.1 2-.5 3.8-1.9 5.3-4.2 1.6-2.3 2.9-5.1 4.1-8.3 1.1-3.2 2-6.5 2.7-9.8l2.7.8c-1.6 7.4-3.8 13.5-6.7 18.4-3.1 4.8-6.7 7.8-11 8.9zm-5.4-30.4c2-3.4 3.7-7.1 5.3-11 1.5-4 2.9-8 4-11.9 1.1-4 2.1-7.8 2.8-11.5.7-3.7 1.1-6.9 1.3-9.8.2-2.8.1-5-.2-6.6-.1-.3-.2-.6-.4-.7-.6.2-1.4 1.3-2.4 3.4-1 2.1-2 5-3.1 8.5s-2.2 7.5-3.2 11.9-1.9 9.1-2.6 13.8c-.7 4.8-1.2 9.4-1.5 13.9z"/><path d="M97.3 87.4c-4.9.8-8.8.1-11.8-2.1S80.7 80 80 76.1c-.6-3.5-.3-7.3.8-11.4 1.1-4.1 2.9-8.1 5.3-11.9 2.4-3.8 5.2-7.1 8.3-9.8 3.2-2.7 6.5-4.3 10-4.9 1.9-.3 3.9-.1 5.8.6s3.1 2.6 3.6 5.6c.5 2.9.1 5.8-1.2 8.7-1.3 2.9-3.2 5.6-5.7 8-2.5 2.5-5.4 4.6-8.6 6.5-3.2 1.8-6.5 3.2-9.9 4.1V73c0 .5.1 1.1.2 1.9.1.6.3 1.4.7 2.4.4 1 .9 2 1.7 2.9.8.9 1.8 1.7 3.2 2.2 1.4.5 3 .6 5 .2 3.3-.5 6.4-2 9.4-4.4 3-2.4 5.7-5.4 8-8.9 2.4-3.5 4.2-7.3 5.5-11.3l2.2 1.3c-1.3 5-3.3 9.5-6 13.4-2.7 4-5.8 7.2-9.4 9.8-3.7 2.6-7.5 4.2-11.6 4.9zm-8.5-19.7c1.9-.7 4.1-1.9 6.5-3.5 2.4-1.6 4.5-3.5 6.6-5.7 2-2.2 3.6-4.5 4.8-6.9 1.2-2.4 1.5-4.7 1.2-7-.1-.8-.4-1.4-.8-1.8-.4-.3-.9-.4-1.7-.3-1.9.3-3.7 1.3-5.4 3-1.8 1.7-3.4 3.7-4.9 6.2-1.5 2.4-2.8 5.1-3.9 7.9-1.2 2.8-2 5.5-2.4 8.1z"/><path d="M134.6 83.7c-4 .3-7.4-.7-10.2-3-2.8-2.3-4.4-6.1-4.8-11.2-.3-3.8.1-7.6 1.4-11.4 1.2-3.8 3-7.3 5.2-10.4 2.3-3.2 4.8-5.7 7.7-7.7 2.9-2 5.9-3.1 9.1-3.3 3.3-.3 5.7.4 7.2 2s2.4 3.5 2.5 5.6c.2 2.3-.2 4.4-1.1 6.5-.9 2-2.2 3.1-4 3.3-1.5.1-2.8-.5-3.8-1.8.9-.6 1.7-1.8 2.4-3.5s1-3.6.8-5.7c-.1-.8-.3-1.4-.6-1.7-.3-.4-1-.5-1.9-.4-2 .2-4.1 1.2-6.1 3.2s-3.8 4.5-5.5 7.5c-1.6 3-2.9 6.1-3.8 9.3-.9 3.2-1.3 6.2-1 8.9.2 2.3.9 4.3 2.3 6.1 1.3 1.8 3.6 2.5 6.9 2.3 3.1-.3 6.1-1.4 9.1-3.3 3-2 5.8-4.6 8.4-8 2.6-3.4 4.5-7.2 5.8-11.7l2.3 1.7c-1.5 4.8-3.7 9.2-6.6 13.2-2.9 4-6.3 7.2-10.1 9.7-3.9 2.1-7.7 3.5-11.6 3.8z"/><path d="M168.8 80.5c-3.5 0-6.2-.9-8.2-2.9-2-2-3.1-5-3.1-9.1 0-3.3.5-7.4 1.7-12.2 1.2-4.9 2.7-9.9 4.5-15.1-.6-.1-1.3-.3-2.1-.4-.7-.1-1.4-.3-2.1-.6V37c1 .1 1.9.2 2.8.3.8.1 1.7.1 2.7.2 1.6-4.2 3.3-8.2 5.2-12.2 1.9-3.9 3.7-7.5 5.6-10.5s3.6-5.5 5.3-7.4c1.7-1.8 3.2-2.7 4.4-2.8.8 0 1.5.3 2.1.8.6.5 1 1.3 1 2.3 0 1.5-.8 3.7-2.3 6.7-1.6 3-3.5 6.4-5.9 10.4-2.3 4-4.6 8.3-6.7 12.8h3.8c3.1 0 6.1-.1 8.9-.3 2.8-.2 5.7-.4 8.6-.8v3.3c-4.3.5-8.2.9-11.8 1.2-3.6.3-6.9.4-9.9.5h-1.6c-1.7 4-3.1 8.1-4.2 12.3-1.2 4.2-1.7 8.2-1.7 12.1 0 3.3.6 5.6 1.6 7 1 1.4 2.7 2 5 2 3.9-.1 7.9-1.9 11.9-5.6 4-3.7 7.5-8.6 10.4-14.7l1.7 1.2c-1.9 4.6-4.3 8.7-7.2 12.4-2.9 3.7-6.1 6.7-9.6 8.8-3.4 2.3-7 3.4-10.8 3.5z"/><path d="M211.7 78.9c-2.8-.2-5-1-6.7-2.6-1.6-1.6-2.4-3.6-2.2-6.1.1-2.2.8-4.5 2.1-7 1.2-2.5 2.5-4.9 3.8-7.3 1.3-2.4 2-4.6 2.1-6.5.1-2-.4-3.7-1.6-5-1.2-1.3-2.5-2.4-4-3.4-2.1 4.3-4.3 8.5-6.6 12.4-2.3 3.9-4.2 7-5.7 9.1l-1.1-1.7c1.2-2 2.4-4.9 4.4-8.6 2-3.7 4.2-9 6.2-13.7-.7-.8-1.1-1.9-1-3.1.1-2.1.9-4 2.3-5.6 1.4-1.6 2.6-2.4 3.6-2.4.9.1 1.4.6 1.7 1.6.3 1 .4 1.7.4 2.1 0 .4-.3 1.1-.7 2.1-.5 1-.7 1.7-.8 2.1-.1.9.5 1.9 1.8 2.8 1.2.9 2.6 2 4.2 3.2 1.5 1.2 2.9 2.7 4 4.4 1.2 1.7 1.7 3.8 1.5 6.3-.1 2.3-.8 4.7-1.9 6.9-1.2 2.3-2.3 4.5-3.5 6.5-1.1 2-1.8 3.8-1.9 5.3-.1 1.3.2 2.1.8 2.5.6.4 1.3.7 2.2.7 1.9.1 3.9-.4 6-1.4 2.1-1.1 4.2-2.4 6.2-4.1 2-1.7 3.8-3.5 5.5-5.4 1.6-1.9 2.9-3.7 3.7-5.2l2.2 1.9c-1.7 3.3-4 6.4-6.9 9.5-2.9 3-6.1 5.5-9.6 7.4-3.5 1.6-7 2.5-10.5 2.3z"/><path d="M239 81.4c-2.6-.4-4.6-2-5.9-4.6-1.3-2.7-1.7-5.6-1.1-8.8.4-2.2 1.1-4.7 2.4-7.5 1.2-2.8 2.6-5.5 4.1-8.2 1.5-2.6 3.1-4.8 4.6-6.5 1.5-1.7 2.7-2.4 3.6-2.3.5.1 1.3.5 2.2 1.2 1 .7 1.8 1.5 2.4 2.4-1.1 1.1-2.4 2.9-4 5.3s-3.2 5.1-4.6 7.9c-1.4 2.8-2.3 5.5-2.7 7.9-.1.4-.1 1.2-.2 2.4s0 2.4.4 3.5c.3 1.1 1.1 1.7 2.4 1.9 1.3.2 2.9-.3 4.6-1.4 1.8-1.2 3.7-2.8 5.6-4.9 2-2.1 3.9-4.3 5.8-6.8s3.7-4.8 5.3-7.1c1.6-2.3 3-4.2 4-5.8.6.2 1.4.5 2.4.9s1.9 1 2.6 1.6c.7.6 1 1.3.9 2.2 0 .2-.6 1.1-1.6 2.7s-2.2 3.5-3.6 5.7-2.7 4.5-3.8 6.9c-1.1 2.4-1.9 4.5-2.2 6.3-.2 1.2-.1 2.2.2 3.1.3.9 1.1 1.5 2.5 1.7 1.6.3 3.7-.1 6.2-1.2 2.5-1.1 5.2-2.9 8.1-5.3 2.9-2.4 5.5-5.4 8-9l1.4 1.5c-2.4 3.9-5.2 7.3-8.4 10.1s-6.5 5-9.9 6.3c-3.4 1.4-6.5 1.8-9.3 1.3-2.2-.4-3.8-1.1-4.8-2.3-1-1.2-1.6-2.5-1.8-4.2-.2-1.6-.1-3.2.1-4.9.1-.5.2-1.1.3-1.7.1-.6.3-1.2.5-1.7-1.7 2-3.5 3.9-5.4 5.7-1.9 1.8-3.9 3.2-5.8 4.2-1.6 1.5-3.6 1.8-5.5 1.5z"/><path d="M334.5 106.8c-2.8-1-4.5-2.6-5.3-4.8-.7-2.1-.6-4.4.2-6.6.7-1.8 1.6-3.4 2.7-4.9 1.2-1.5 2.3-3 3.5-4.5 1.2-1.5 2-2.9 2.5-4.3.5-1.3.6-2.3.2-3.1-.4-.7-.9-1.2-1.6-1.5-1.8-.7-4.2-.1-7.5 1.8-3.2 1.9-7.4 4.7-12.7 8.4-1.8 1.3-3.6 2.8-5.2 4.3-1.7 1.6-3.2 2.9-4.5 4-.6-.2-1.4-.6-2.3-1.2-.9-.6-1.7-1.2-2.4-1.9-.6-.7-.8-1.3-.6-1.9.2-.7 1.1-1.8 2.5-3.4 1.4-1.6 3.1-3.6 5-5.8 1.9-2.2 3.7-4.5 5.3-6.7 1.6-2.3 2.8-4.3 3.4-6.1.4-1.1.5-2 .4-2.8-.1-.8-.6-1.3-1.5-1.6-1.5-.6-3.8-.3-6.7.7-2.9 1.1-6.1 2.6-9.7 4.7-3.5 2.1-7.1 4.6-10.5 7.6-3.5 2.9-6.6 6-9.2 9.2-.8-.3-1.7-.8-2.7-1.5-1-.7-1.8-1.4-2.5-2.2-.6-.7-.9-1.3-.8-1.7.1-.2.8-1.2 2.2-3.1 1.4-1.8 3-4.1 5-6.8s3.9-5.5 5.9-8.3c1.9-2.9 3.6-5.4 4.9-7.7.5-.6 1.5-.9 3-1 1.5-.1 2.7 0 3.7.4s1.7 1 2.2 1.8c.4.8.4 1.7 0 2.8-.3.8-1 2-2 3.6s-2.2 3.3-3.5 5.1c2.3-1.6 4.8-3.1 7.4-4.6 2.6-1.5 5.2-2.8 7.8-3.8 2.6-1 5.1-1.7 7.4-2.1 2.3-.3 4.5-.2 6.4.6 2.6 1 4 2.5 4.2 4.7.2 2.2-.1 4.4-.9 6.7-.5 1.2-1.1 2.5-1.8 3.7-.7 1.2-1.5 2.3-2.3 3.4-.8 1.1-1.6 2.1-2.5 3.1 2.3-1.8 4.8-3.4 7.2-4.8 2.5-1.4 4.9-2.3 7.4-2.8 2.4-.5 4.8-.3 7.1.6 2.7 1 4.3 2.5 4.7 4.5.4 2 .3 4-.5 6-.7 1.9-1.8 3.8-3.2 5.8-1.4 1.9-2.8 3.8-4.2 5.4-1.4 1.7-2.3 3.2-2.9 4.6-.3.8-.4 1.6-.2 2.4.2.8.8 1.4 2 1.9 2 .7 4.2.5 6.8-.6 2.5-1.2 5.1-2.8 7.6-4.9 2.5-2.1 4.8-4.2 6.8-6.2l1 2.6c-2.3 2.6-5 5.2-8 7.5-3 2.4-6.2 4.1-9.4 5.3-3 1.1-6.2 1.1-9.3 0z"/><g opacity=".9"><path class="st6" d="M129.1 116.3c.2.8.7 1.2 1.7 1.2s1.4-.4 1.4-1c0-.7-.4-1-1.7-1.3-1.9-.5-2.5-1.1-2.5-2.2 0-1.2.9-2.1 2.6-2.1 1.9 0 2.7 1 2.8 2.1H132c-.1-.5-.4-1-1.4-1-.7 0-1.2.3-1.2.9 0 .6.4.8 1.6 1.1 2.2.5 2.6 1.3 2.6 2.3 0 1.3-1 2.2-2.9 2.2s-2.8-1-3-2.2h1.4zM135.3 111h3c1.5 0 2.6.9 2.6 2.3 0 1.6-1.2 2.3-2.6 2.3h-1.5v2.9h-1.4V111zm1.4 3.4h1.4c.8 0 1.4-.4 1.4-1.2 0-.8-.6-1.2-1.3-1.2h-1.4v2.4zM143.2 116.5l-.7 1.9h-1.4l2.6-7.5h1.7l2.7 7.5h-1.5l-.7-1.9h-2.7zm2.5-1.1c-.6-1.7-.9-2.7-1.1-3.4-.2.7-.6 1.9-1.1 3.4h2.2zM155.7 116.2c-.3 1.3-1.3 2.3-3.1 2.3-2.3 0-3.4-1.7-3.4-3.8 0-2 1.1-3.9 3.5-3.9 1.9 0 2.9 1.1 3.1 2.4h-1.4c-.2-.7-.6-1.2-1.7-1.2-1.4 0-2 1.3-2 2.7 0 1.3.5 2.7 2 2.7 1.1 0 1.5-.7 1.7-1.2h1.3zM162.4 115.1h-3.6v2.1h4l-.2 1.2h-5.2V111h5.1v1.2h-3.8v1.8h3.6v1.1zM165.4 116.3c.2.8.7 1.2 1.7 1.2s1.4-.4 1.4-1c0-.7-.4-1-1.7-1.3-1.9-.5-2.5-1.1-2.5-2.2 0-1.2.9-2.1 2.6-2.1 1.9 0 2.7 1 2.8 2.1h-1.4c-.1-.5-.4-1-1.4-1-.7 0-1.2.3-1.2.9 0 .6.4.8 1.6 1.1 2.2.5 2.6 1.3 2.6 2.3 0 1.3-1 2.2-2.9 2.2s-2.8-1-3-2.2h1.4zM171.6 111h1.4v3h3.3v-3h1.4v7.5h-1.4v-3.3H173v3.3h-1.4V111zM181.4 111v7.5H180V111h1.4zM183.7 111h3c1.5 0 2.6.9 2.6 2.3 0 1.6-1.2 2.3-2.6 2.3h-1.5v2.9h-1.4V111zm1.4 3.4h1.4c.8 0 1.4-.4 1.4-1.2 0-.8-.6-1.2-1.3-1.2h-1.4v2.4zM200.3 116.2c-.3 1.3-1.3 2.3-3.1 2.3-2.3 0-3.4-1.7-3.4-3.8 0-2 1.1-3.9 3.5-3.9 1.9 0 2.9 1.1 3.1 2.4H199c-.2-.7-.6-1.2-1.7-1.2-1.4 0-2 1.3-2 2.7 0 1.3.5 2.7 2 2.7 1.1 0 1.5-.7 1.7-1.2h1.3zM208.9 114.7c0 2.1-1.2 3.9-3.6 3.9-2.3 0-3.5-1.7-3.5-3.8 0-2.2 1.3-3.8 3.6-3.8 2.1-.1 3.5 1.4 3.5 3.7zm-5.7 0c0 1.5.7 2.7 2.1 2.7 1.5 0 2.1-1.3 2.1-2.7 0-1.5-.6-2.7-2.1-2.7s-2.1 1.2-2.1 2.7zM210.2 118.4v-1.8h1.4v1.8h-1.4z"/></g><path class="st6" d="M176.5 105.7l-2.6-8.3 30.9-2.6-43.1-11 2.6 8.3-30.9 2.6z"/></svg>
