<svg version="1.1" id="Layer_1" xmlns="http://www.w3.org/2000/svg" x="0" y="0" viewBox="0 0 129.9 168.5" xml:space="preserve"><style>.st1{fill:#383838}.st5{fill:#df3200}</style><path fill="#ffbd1f" d="M0 137.5L64.9 149l65-11.5V94.9H0z"/><path class="st1" d="M18 159.7c-3.4-.2-6.6-.6-9.4-1.1-1.4-.3-2.5-.8-3.2-1.5-.7-.8-1-1.9-1-3.2v-6.8c0-1.5.3-2.5 1-3.1s1.8-.7 3.4-.4l7.9 1.4v3l-7-1.2c-.9-.2-1.3.2-1.3 1v6.8c0 .3.1.6.3.8.2.2.5.4.8.4 1.7.3 3.2.5 4.6.7v-3.1l-2.9-.5v-2.6l6.8 1.2v8.2zM33.7 162.8l-4-.7v-4.5l-3.1-.5-2.5 4-4.3-.7 2.7-4.2c-.9-.4-1.5-.9-1.9-1.6-.4-.7-.6-1.7-.6-2.9v-1.9c0-1.5.3-2.5 1-3.1.7-.6 1.8-.7 3.4-.4l9.2 1.6.1 14.9zm-9.6-10.5c0 .9.4 1.4 1.3 1.5l4.4.8v-4.5l-4.4-.8c-.9-.2-1.3.2-1.3 1v2zM39.5 163.8l-4.3-.7 5.8-13.9 4.4.8 5.8 15.9-4.3-.7-1-2.8-5.5-1-.9 2.4zm2-5.1l3.5.6-1.8-5.3-1.7 4.7zM56.5 162.2l3.7-9.8 4.3.7-5.8 13.9-4.4-.8-5.8-15.9 4.3.7 3.7 11.2zM72.9 152.1l-4.6.8-5.4 14.9 4 .7.9-2.5 5.8-1 1 2.6 4.5-.8-6.2-14.7zm-4.1 10.7l1.9-5.6 1.9 4.9-3.8.7zM93.9 163.8c-3.6 1-6.9 1.8-10 2.3-1.5.3-2.6.1-3.3-.4-.7-.6-1.1-1.6-1.1-3v-7.2c0-1.6.4-2.8 1.1-3.6.7-.8 1.9-1.4 3.5-1.7l8.3-1.5v3.1l-7.4 1.3c-.9.2-1.4.7-1.4 1.6v7.2c0 .3.1.6.3.8.2.2.5.2.8.2 1.8-.3 3.4-.6 4.9-1v-3.3l-3 .5v-2.7l7.2-1.3.1 8.7zM109.1 161.4l-12.9 2.3V148l12.9-2.3v3.1l-8.7 1.5v3l6.8-1.2v3.1l-6.8 1.2v3.3l8.7-1.5v3.2zM111 145.4l9.7-1.7c1.6-.3 2.8-.1 3.5.4.7.6 1.1 1.7 1.1 3.2v2c0 1.2-.2 2.2-.6 3-.4.8-1.1 1.3-2 1.7l2.9 4.4-4.5.8-2.7-4.2-3.2.6v4.7l-4.2.7v-15.6zm10.2 2.7c0-.9-.5-1.3-1.4-1.1l-4.6.8v4.7l4.6-.8c.9-.2 1.4-.7 1.4-1.6v-2z"/><path fill="#b3b3b3" d="M.2 23.3v109.6l65 11.5V.1z"/><path d="M48.1 108.1c-3-.1-5.3-1-7-2.4-1.7-1.5-2.5-3.4-2.5-5.7V50.7c0-6.2 3.7-10.1 11.5-11.8L65 35.5v-24l-22.7 7.1c-12.5 3.9-20.9 8.8-25.8 14.8-4.7 5.7-7 13.2-7 22.7v43.4c0 8.9 2.2 15.6 6.7 20.3 4.7 4.9 12.6 8.1 24.1 9.7 7.4 1 15.6 2 24.5 2.9v-23.6c-5.5-.2-11.2-.4-16.7-.7z" fill="#b32800"/><path fill="#ccc" d="M129.9 23.3L64.9 0v144.3l65-11.5z"/><g><path class="st5" d="M111.5 46V26.2L64.9 11.5v24zM120.4 69.7l-48-6v19.9l19 .9v22.3c-7.7.7-16.4 1.3-26.4 1.9v23.6c20.2-3.2 38.6-6.8 55.4-10.5V69.7z"/></g></svg>
