<svg version="1.1" id="Layer_1" xmlns="http://www.w3.org/2000/svg" x="0" y="0" viewBox="0 0 345.9 36" xml:space="preserve"><style>.st0{fill:#9c910d}</style><path d="M64.4 35.5c-.3 0-.6-.1-.8-.3-.2-.2-.3-.5-.3-.9V1.7c0-.4.1-.7.3-.9.2-.2.5-.3.8-.3h4.5c.4 0 .7.1.9.3.2.2.3.5.3.9v12.9h14.7V1.7c0-.4.1-.7.4-.9.2-.2.5-.3.8-.3h4.5c.4 0 .7.1.9.3.2.2.3.5.3.9v32.5c0 .3-.1.6-.3.9-.2.2-.5.3-.9.3H86c-.3 0-.6-.1-.8-.3-.2-.2-.4-.5-.4-.9V20.9H70.1v13.4c0 .3-.1.6-.3.9-.2.2-.5.3-.9.3h-4.5zM105.3 35.5c-.3 0-.6-.1-.8-.3-.2-.2-.3-.5-.3-.9V1.7c0-.4.1-.7.3-.9.2-.2.5-.3.8-.3h22c.4 0 .7.1.9.3.2.2.3.5.3.9V5c0 .3-.1.6-.3.9-.2.2-.5.3-.9.3h-16.4V15h15.3c.4 0 .7.1.9.3.2.2.3.5.3.9v3.1c0 .4-.1.7-.3.9-.2.2-.5.3-.9.3h-15.3v9.1h16.8c.4 0 .7.1.9.3.2.2.3.5.3.9v3.3c0 .3-.1.6-.3.9-.2.2-.5.3-.9.3h-22.4zM140.9 35.5c-.3 0-.6-.1-.8-.3-.2-.2-.3-.5-.3-.9V1.7c0-.4.1-.7.3-.9.2-.2.5-.3.8-.3h12.9c4 0 7.2.9 9.5 2.8s3.5 4.6 3.5 8.1c0 2.5-.6 4.5-1.8 6.1-1.2 1.6-2.8 2.8-4.9 3.5l7.3 12.7c.1.2.1.4.1.5 0 .3-.1.5-.3.7-.2.2-.5.3-.7.3H162c-.6 0-1-.2-1.3-.4-.3-.3-.5-.6-.7-.9l-6.4-11.8h-6.9v12c0 .3-.1.6-.3.9-.2.2-.5.3-.9.3h-4.6zm5.7-18.9h7c2 0 3.5-.5 4.5-1.4s1.5-2.2 1.5-3.9-.5-3-1.5-3.9c-1-.9-2.5-1.4-4.6-1.4h-7v10.6zM179.1 35.5c-.4 0-.7-.1-.9-.3-.2-.2-.3-.5-.3-.9V1.7c0-.4.1-.7.3-.9.2-.2.5-.3.9-.3h3.9c.5 0 .8.1 1.1.4.2.2.4.4.4.6l9.6 18 9.7-18c.1-.1.2-.3.4-.6.2-.2.6-.4 1-.4h3.9c.4 0 .7.1.9.3.2.2.4.5.4.9v32.5c0 .3-.1.6-.4.9-.2.2-.5.3-.9.3h-4.2c-.4 0-.7-.1-.9-.3-.2-.2-.3-.5-.3-.9V12.6l-7 13.3c-.2.3-.4.6-.7.8-.3.2-.6.3-1 .3h-2c-.5 0-.8-.1-1.1-.3s-.5-.5-.6-.8l-7-13.3v21.6c0 .3-.1.6-.3.9-.2.2-.5.3-.9.3h-4zM224.1 35.5c-.3 0-.6-.1-.8-.3-.2-.2-.3-.5-.3-.9V1.7c0-.4.1-.7.3-.9.2-.2.5-.3.8-.3h22c.4 0 .7.1.9.3.2.2.3.5.3.9V5c0 .3-.1.6-.3.9-.2.2-.5.3-.9.3h-16.4V15H245c.4 0 .7.1.9.3.2.2.3.5.3.9v3.1c0 .4-.1.7-.3.9-.2.2-.5.3-.9.3h-15.3v9.1h16.8c.4 0 .7.1.9.3.2.2.3.5.3.9v3.3c0 .3-.1.6-.3.9-.2.2-.5.3-.9.3h-22.4zM270.6 36c-3.1 0-5.7-.5-7.8-1.4-2.1-.9-3.7-2.1-4.7-3.6-1.1-1.5-1.7-3-1.7-4.7 0-.3.1-.5.3-.7.2-.2.4-.3.7-.3h4.4c.4 0 .8.1 1 .3.2.2.4.4.6.7.2.6.6 1.3 1.1 1.9.6.6 1.3 1.1 2.3 1.5 1 .4 2.2.6 3.7.6 2.4 0 4.2-.4 5.4-1.2 1.2-.8 1.8-1.9 1.8-3.2 0-1-.3-1.7-.9-2.3-.6-.6-1.6-1.1-2.9-1.6-1.3-.5-3.1-1-5.2-1.5-2.5-.6-4.6-1.3-6.3-2.2-1.7-.8-2.9-1.9-3.8-3.2-.9-1.3-1.3-2.9-1.3-4.9 0-1.9.5-3.6 1.6-5.1 1-1.5 2.5-2.7 4.5-3.5 1.9-.9 4.3-1.3 7-1.3 2.2 0 4.1.3 5.7.9 1.7.6 3 1.3 4.1 2.3 1.1.9 1.9 2 2.5 3 .6 1.1.9 2.1.9 3.2 0 .3-.1.5-.3.7-.2.2-.4.3-.8.3H278c-.3 0-.5-.1-.8-.2-.3-.1-.5-.4-.7-.7-.2-1-.8-1.9-1.9-2.6-1.1-.7-2.5-1.1-4.2-1.1-1.8 0-3.2.3-4.3 1-1.1.7-1.6 1.7-1.6 3.1 0 .9.3 1.7.8 2.3.5.6 1.4 1.2 2.6 1.6 1.2.5 2.8 1 4.8 1.5 2.8.6 5.1 1.4 6.9 2.2 1.8.8 3.1 1.9 3.9 3.2.8 1.3 1.2 2.9 1.2 4.9 0 2.2-.6 4.1-1.8 5.6-1.2 1.5-2.8 2.7-5 3.6-2 .5-4.5.9-7.3.9z"/><g><path class="st0" d="M50 11.6H11c-6.1 0-11-4.9-11-11h50v11zM50 23.5H22c-6.1 0-11-4.9-11-11h39v11zM50 35.3H33c-6.1 0-11-4.9-11-11h28v11z"/></g><g><path class="st0" d="M295.9 11.6h39c6.1 0 11-4.9 11-11h-50v11zM295.9 23.5h28c6.1 0 11-4.9 11-11h-39v11zM295.9 35.3h17c6.1 0 11-4.9 11-11h-28v11z"/></g></svg>
