<svg xmlns="http://www.w3.org/2000/svg" viewBox="0 0 346.2 123.2"><path d="M4.4 122.6c-1.9-.7-3.3-1.8-4.4-3.3l1.3-1.3c1 1.4 2.3 2.3 3.9 2.9 1.6.6 3.3.7 5.3.3 2.6-.5 4.5-1.6 5.7-3.4 1.2-1.7 1.8-4.4 1.8-7.9V66.3L3.8 69.1v-1.8l16.1-3.2-.1 45.6c0 4.1-.7 7.1-2.2 9.2-1.5 2-3.8 3.4-7 4-2.3.5-4.3.4-6.2-.3zM33 101.5l-2.1.4 17.9-43.4 1.8-.4 17.7 36.5-1.9.4-16.5-34.6L33 101.5zM87.5 89c-2.9-.8-5.2-2.2-7-4.3-1.8-2.1-3-4.7-3.6-7.8-.8-4.2-.6-8.2.6-12.1 1.2-3.9 3.3-7.3 6.4-10.1 3.1-2.8 7-4.7 11.6-5.6 2.9-.6 5.6-.6 8.1-.2 2.4.4 4.5 1.3 6.1 2.7l-1.1 1.4c-3.2-2.5-7.4-3.2-12.8-2.2-4.2.8-7.7 2.5-10.6 5.1-2.8 2.6-4.8 5.7-5.9 9.3-1.1 3.6-1.3 7.4-.5 11.3.8 4.3 2.9 7.4 6.1 9.4 3.2 2 7.4 2.5 12.4 1.5 5.4-1.1 9.4-3.5 12.2-7.3l1.4 1.2c-1.4 1.9-3.2 3.6-5.6 4.9-2.3 1.4-4.9 2.4-7.8 2.9-3.9.7-7.1.7-10-.1zM136.5 59.6l18.4 18-2.1.4-17.4-16.9-9.1 11.5v10.6l-1.9.4.1-40 1.9-.4-.1 26.6 25-31.5 2.6-.5-17.4 21.8zM168.9 73.4c-2.7-.5-4.7-1.4-6.1-2.7l.8-1.5c1.4 1.2 3.3 2.1 5.8 2.5 2.5.5 5 .5 7.4 0 3.8-.8 6.8-2.2 8.8-4.3 2-2.1 2.8-4.6 2.2-7.5-.3-1.5-1-2.6-2-3.4-1-.8-2.3-1.3-3.6-1.6-1.4-.3-3.2-.5-5.5-.7-2.5-.2-4.5-.5-6.1-.8-1.5-.3-2.9-1-4.1-2-1.2-1-2-2.4-2.4-4.3-.7-3.5.1-6.5 2.4-9s5.6-4.1 9.9-5c2.2-.4 4.3-.5 6.4-.3 2.1.2 4 .7 5.6 1.5l-.7 1.7c-1.6-.8-3.3-1.3-5.2-1.5-1.9-.2-3.8-.1-5.8.3-3.7.7-6.6 2.2-8.6 4.3-2 2.1-2.7 4.6-2.2 7.5.3 1.5 1 2.7 2.1 3.5 1.1.8 2.3 1.3 3.7 1.6 1.4.3 3.2.5 5.6.8 2.5.2 4.5.5 6 .8 1.5.3 2.9 1 4.1 1.9 1.2 1 2 2.4 2.4 4.2.7 3.5-.2 6.5-2.5 9-2.4 2.5-5.7 4.2-10.1 5-2.9.5-5.6.6-8.3 0zM235.6 21.7l-.1 40-1.9.4.1-19.4-27 5.3-.1 19.4-1.9.4.1-40 1.9-.4-.1 18.8 27-5.3.1-18.8 1.9-.4zM250 58.9l-2.1.4 17.9-43.4 1.8-.4L285.3 52l-1.9.4-16.6-34.6L250 58.9zM346.2 0L333 42.5l-1.9.4-12.4-34.6L306 47.8l-1.9.4-13-37.4 1.8-.4L305 45.3l12.7-39.7 1.8-.3L331.9 40 344.3.4l1.9-.4zM314.8 58.2L29.1 112.4l286.3-56zM321.7 57.1l-2.1 6.3-2.2-6.3 2.2-6.3z"/></svg>
