<svg version="1.1" id="Layer_1" xmlns="http://www.w3.org/2000/svg" x="0" y="0" viewBox="0 0 178.1 86.9" xml:space="preserve" enable-background="new 0 0 178.1 86.9"><style>.st0{fill:#171a00}.st4{fill:#7fff5f}</style><path class="st0" d="M7.2 76.5s-11.4-.4-5.6-14c0 0 3.9-7.7 8.9-13.9l12.3-15.3s9.3-10.6 8.7-15.6c0 0 .4-11.5-12.1-6.5 0 0-2.9 1.1-8.3 6.5 0 0-7.2 6.7-8-2.4l-.5-10S2.1.3 7.3 0l34.9.3s15.4-.3 5.7 17.8c0 0-4.3 8-16.2 24.7L14.9 63.9v.1c6 .7 10.8 4 15.4 6.3 7.8 3.8 12.6.6 12.6.6s6.2-4 3-9.6-8-5.6-9.8-3.5c-1.9 2.1-2.3 5.1-.5 7.2 1.7 2.1 3.6.7 4.3-.1.9-1 1.6-1 1.6-1s.9.1.2 1.1c-1.5 2-4.2 3.8-7 2.2-2.8-1.6-5.7-6.5-1-12.1s12.4-1.2 15.5 3.2c3.1 4.4 2.7 10.3-2.1 15-6.3 6.2-15 5-23.2 2.5-2.9-.9-5.9-.8-9.6.1-1.8.4-2.7.8-7.1.6z"/><path class="st0" d="M62.6 39.4s2.1-3.8 5.2-4c0 0 2.2-.3 3.1 2.1S67.7 42 67.7 42s-7.7 7.1-5.3 12.1 6.7 5.3 6.7 5.3 5.5 1.2 10.1.2c0 0 7-2.5 5.1 3.6 0 0-1 3.3-4.9 3.6l-21.2-.3s-4.3.5-4.4-4.9l-1.2-40.1s-.9-3.8 3.7-3.8l23.8.4s3.1-.4 3.1 3.3l-.3 4.8s-.6 2.4-3.7 2.3c-3.1 0-9.4-1.4-12.8 1.8.2.1-3.3 2.8-3.8 9.1zM174.8 5.5S173.5 0 169.6 0h-9.4s-4.8 0-7.4 9.9c0 0-3.6 15.7-7.4 38.4 0 0-1.6 10-1.3 13.4 0 0 0 2.3 2.5 2.5 0 0 2.9.2 3.4-3.5 0 0 1.1-11.8 4.3-19.8 0 0 2.1-7.8 15.3-5.7l2.3 33.1s-.1 4 3.6 4c2.8 0 2.7-2.9 2.7-2.9V46c-.1 0-.4-27.8-3.4-40.5zm-13.4 21.3s-5.9-.4-2.2-8.3 7.6 0 7.6 0 1.5 2.3 2.1 9.5l-7.5-1.2z"/><path class="st0" d="M102.3 14l-4 65.1s.4 7.5-2.8 7.7-4.2-2.1-4.2-5.6l-2.4-67.6s-1.5-8-10-1.6c0 0-1.8 2.1-4.4 1.6 0 0-3.1-.5-3.3-6.3V4.2s0-4.2 4.2-4.2H123s4-.4 4.3 3.8c0 0 .4 3.9-.4 5.9-.7 2.1-2.7 5.8-5.6 4.6.1.1-19.1-7.8-19-.3z"/><path class="st0" d="M134.5 64.8c-1.6-1.6-3.3-4.3-3.9-6.4 0 0-1.5-4.1-.9-12.7 0 0 8.9.1 11.2-5.5 0 0 1.4-1.2.7-8.5 0 0-.6-6.6-10-10.4 0 0-2.5-1.2-8.9-1.2l-11.1-.3s-4.3-.2-3.7 5l1.3 38.8s.3 3.2 3.1 3.2c2.8 0 3.6-2.6 3.6-2.6l1.5-27.8s1.4-6.4 5.4-6.4 4.1.9 4.9 2.5c.8 1.6 1 5.5-4.3 6.9 0 0-4.4 0-3.8 5.5.6 5.5.8 14.7 6.9 21.3 2.5 2.8 3.3 3.4 5.8 4.8 0 0 3.1 1.4 5.5 1.5 2.4.2 3.5.2 6.1-.2 2.4-.4 4.6-1.9 6.7-2 1.9-.1 3.3.6 5.5 1.7 4.6 2.3 7.9.2 8.2-2.9.2-2.3-.6-3.1-1.9-3.6 0 0-.9-.3-1 .1 0 0-.2.6.6 1 1.5.8 1.8 3.1-.2 4.4s-4.7-.9-5.6-1.6c-1.2-.9-2.6-1.6-3.8-1.8 0 0-2.3-.5-5.2.7-4.4 1.7-10-.8-12.7-3.5z"/><defs><filter id="Adobe_OpacityMaskFilter" filterUnits="userSpaceOnUse" x="0" y="0" width="178.1" height="86.9"><feColorMatrix values="1 0 0 0 0 0 1 0 0 0 0 0 1 0 0 0 0 0 1 0"/></filter></defs><mask maskUnits="userSpaceOnUse" x="0" y="0" width="178.1" height="86.9" id="SVGID_1_"><g filter="url(#Adobe_OpacityMaskFilter)"><linearGradient id="SVGID_2_" gradientUnits="userSpaceOnUse" x1="89.0627" y1="93.5887" x2="89.0627" y2="-14.3097"><stop offset="0" stop-color="#fff"/><stop offset="1"/></linearGradient><path fill="url(#SVGID_2_)" d="M-14.4-14.3h206.9V93.6H-14.4z"/></g></mask><g mask="url(#SVGID_1_)"><path class="st4" d="M7.2 76.5s-11.4-.4-5.6-14c0 0 3.9-7.7 8.9-13.9l12.3-15.3s9.3-10.6 8.7-15.6c0 0 .4-11.5-12.1-6.5 0 0-2.9 1.1-8.3 6.5 0 0-7.2 6.7-8-2.4l-.5-10S2.1.3 7.3 0l34.9.3s15.4-.3 5.7 17.8c0 0-4.3 8-16.2 24.7L14.9 63.9v.1c6 .7 10.8 4 15.4 6.3 7.8 3.8 12.6.6 12.6.6s6.2-4 3-9.6-8-5.6-9.8-3.5c-1.9 2.1-2.3 5.1-.5 7.2 1.7 2.1 3.6.7 4.3-.1.9-1 1.6-1 1.6-1s.9.1.2 1.1c-1.5 2-4.2 3.8-7 2.2-2.8-1.6-5.7-6.5-1-12.1s12.4-1.2 15.5 3.2c3.1 4.4 2.7 10.3-2.1 15-6.3 6.2-15 5-23.2 2.5-2.9-.9-5.9-.8-9.6.1-1.8.4-2.7.8-7.1.6z"/><path class="st4" d="M62.6 39.4s2.1-3.8 5.2-4c0 0 2.2-.3 3.1 2.1S67.7 42 67.7 42s-7.7 7.1-5.3 12.1 6.7 5.3 6.7 5.3 5.5 1.2 10.1.2c0 0 7-2.5 5.1 3.6 0 0-1 3.3-4.9 3.6l-21.2-.3s-4.3.5-4.4-4.9l-1.2-40.1s-.9-3.8 3.7-3.8l23.8.4s3.1-.4 3.1 3.3l-.3 4.8s-.6 2.4-3.7 2.3c-3.1 0-9.4-1.4-12.8 1.8.2.1-3.3 2.8-3.8 9.1zM174.8 5.5S173.5 0 169.6 0h-9.4s-4.8 0-7.4 9.9c0 0-3.6 15.7-7.4 38.4 0 0-1.6 10-1.3 13.4 0 0 0 2.3 2.5 2.5 0 0 2.9.2 3.4-3.5 0 0 1.1-11.8 4.3-19.8 0 0 2.1-7.8 15.3-5.7l2.3 33.1s-.1 4 3.6 4c2.8 0 2.7-2.9 2.7-2.9V46c-.1 0-.4-27.8-3.4-40.5zm-13.4 21.3s-5.9-.4-2.2-8.3 7.6 0 7.6 0 1.5 2.3 2.1 9.5l-7.5-1.2z"/><path class="st4" d="M102.3 14l-4 65.1s.4 7.5-2.8 7.7-4.2-2.1-4.2-5.6l-2.4-67.6s-1.5-8-10-1.6c0 0-1.8 2.1-4.4 1.6 0 0-3.1-.5-3.3-6.3V4.2s0-4.2 4.2-4.2H123s4-.4 4.3 3.8c0 0 .4 3.9-.4 5.9-.7 2.1-2.7 5.8-5.6 4.6.1.1-19.1-7.8-19-.3z"/><path class="st4" d="M134.5 64.8c-1.6-1.6-3.3-4.3-3.9-6.4 0 0-1.5-4.1-.9-12.7 0 0 8.9.1 11.2-5.5 0 0 1.4-1.2.7-8.5 0 0-.6-6.6-10-10.4 0 0-2.5-1.2-8.9-1.2l-11.1-.3s-4.3-.2-3.7 5l1.3 38.8s.3 3.2 3.1 3.2c2.8 0 3.6-2.6 3.6-2.6l1.5-27.8s1.4-6.4 5.4-6.4 4.1.9 4.9 2.5c.8 1.6 1 5.5-4.3 6.9 0 0-4.4 0-3.8 5.5.6 5.5.8 14.7 6.9 21.3 2.5 2.8 3.3 3.4 5.8 4.8 0 0 3.1 1.4 5.5 1.5 2.4.2 3.5.2 6.1-.2 2.4-.4 4.6-1.9 6.7-2 1.9-.1 3.3.6 5.5 1.7 4.6 2.3 7.9.2 8.2-2.9.2-2.3-.6-3.1-1.9-3.6 0 0-.9-.3-1 .1 0 0-.2.6.6 1 1.5.8 1.8 3.1-.2 4.4s-4.7-.9-5.6-1.6c-1.2-.9-2.6-1.6-3.8-1.8 0 0-2.3-.5-5.2.7-4.4 1.7-10-.8-12.7-3.5z"/></g></svg>
